<?xml version="1.0" encoding="UTF-8"?>
<svg xmlns="http://www.w3.org/2000/svg" viewBox="0 0 375.9 169.31">
  <defs>
    <style>
      .cls-1, .cls-2 {
        fill-rule: evenodd;
      }

      .cls-2 {
        fill: #fbc314;
      }
    </style>
  </defs>
  <g id="Layer_2" data-name="Layer 2">
    <g id="Layer_1-2" data-name="Layer 1">
      <g>
        <path class="cls-1" d="M0,152.93a28.69,28.69,0,0,0,1.78-4.1q5.58-13.52,11.1-27.06a1.26,1.26,0,0,1,1.41-1c2.07.08,4.15,0,6.22,0a.93.93,0,0,1,1,.66q6.67,15.56,13.4,31.1c.27.63.18.77-.5.76-2.24,0-4.47,0-6.71,0a.82.82,0,0,1-.91-.65c-.69-2-1.47-3.92-2.15-5.9a1.12,1.12,0,0,0-1.28-.86q-5.77,0-11.55,0a1.05,1.05,0,0,0-1.21.81c-.67,1.84-1.46,3.64-2.13,5.49a1.4,1.4,0,0,1-1.59,1.13c-2.3-.1-4.6,0-6.9,0Zm17.43-24L13.2,140.25c2.74,0,5.3,0,7.87,0,.65,0,.68-.16.46-.72C20.17,136.07,18.84,132.59,17.43,128.93Z"></path>
        <path class="cls-1" d="M318.07,169.31c0-2.69,0-5.38,0-8.06,0-.66.18-.83.82-.82,1.71,0,3.41,0,5.12,0a2.65,2.65,0,0,1,2.93,2.18c.26,1.51-.31,2.39-2,3.06.65.95,1.26,1.92,1.94,2.83.28.37.23.57-.11.79h-2c-.69-1.06-1.38-2.13-2.06-3.2a.73.73,0,0,0-.63-.35c-1.87-.15-1.87-.16-1.87,1.69a6.48,6.48,0,0,0,0,1.08c.07.38-.2.55-.38.78ZM322,162c-1.93,0-1.93,0-1.79,1.83,0,.1,0,.2,0,.3a.24.24,0,0,0,.26.23,11.25,11.25,0,0,0,3.12-.17,1,1,0,0,0,.8-1,1.09,1.09,0,0,0-.82-1.09A5.08,5.08,0,0,0,322,162Z"></path>
        <path class="cls-1" d="M330.5,169.31c-1.13-.54-2.32-1-2.76-2.36a6.55,6.55,0,0,1-.12-3.87,3.52,3.52,0,0,1,1.25-1.85,6.91,6.91,0,0,1,6.66-.16,3.68,3.68,0,0,1,.38.31c2.15,2.06,1.23,6.68-1.54,7.7-.12,0-.36-.05-.32.23Zm-.83-4.44c0,1,.06,2,1.11,2.54a2.51,2.51,0,0,0,3.92-2.22,8.58,8.58,0,0,0,0-.88,2.34,2.34,0,0,0-2.64-2.38C330.46,162,329.65,163,329.67,164.87Z"></path>
        <path class="cls-1" d="M347.87,169.31c0-2.66,0-5.33,0-8,0-.66.13-.92.85-.89,1.64,0,3.29,0,4.94,0a2.8,2.8,0,0,1,3.1,2.92c0,1.63-1.3,2.76-3.16,2.78-1,0-1.91,0-2.86,0-.51,0-.71.12-.67.66s-.05,1.12,0,1.67-.2.62-.45.84Zm4-4.72h1.08a1.37,1.37,0,0,0,1.41-1.33,1.32,1.32,0,0,0-1.38-1.25c-.69,0-1.38,0-2.06,0s-.83.15-.82.81C350.08,164.59,350,164.59,351.83,164.59Z"></path>
        <path class="cls-1" d="M341.75,169.31c-.46-.38-1-.23-1.56-.4a2.77,2.77,0,0,1-2.21-3c0-1.58,0-3.15,0-4.73,0-.57.09-.88.74-.78a3.79,3.79,0,0,0,.89,0c.49-.06.61.16.6.62,0,1.48,0,3,0,4.44s.7,2.16,2.19,2.13,2.14-.57,2.14-2.14c0-1.41,0-2.83,0-4.24,0-.64.16-.84.81-.82,1.37,0,1.37,0,1.37,1.34v4.14c0,2-.95,3-3,3.2-.33,0-.72-.18-1,.2Z"></path>
        <path class="cls-1" d="M316.68,169.1c0,.07,0,.14,0,.21h-6.12c0-.05,0-.11,0-.16Z"></path>
        <path class="cls-2" d="M161.2,5.45a18.64,18.64,0,0,1,9.35-.1,11.6,11.6,0,0,1,7.19,5.44q13.74,23.31,27.52,46.58A28.14,28.14,0,0,0,222.8,70.62a29.37,29.37,0,1,0-21.26-34.09c-.16.76-.26,1.53-.39,2.3-.35,0-.39-.27-.5-.44-2.7-4.31-5.39-8.64-8.12-12.94a1.32,1.32,0,0,1-.05-1.52C199,11.17,209.29,3.24,223.47.8A42,42,0,0,1,239,83.39c-14.47,2.91-27.17-1-38-11-2.79-2.57-4.76-5.78-6.76-8.94C185.7,50,178,36.07,170.3,22.17c-2.9-5.22-5.73-10.49-8.6-15.73Z"></path>
        <path class="cls-2" d="M156.71,44.88c.35.14.43.41.57.62,2.76,4.24,5.51,8.49,8.29,12.71a1.33,1.33,0,0,1,.07,1.52c-6.33,12.89-16.48,21-30.59,23.68A42,42,0,0,1,119.57.8c14-2.62,26.31,1.26,36.88,10.76,3.21,2.87,5.45,6.48,7.73,10,7.16,11.19,13.57,22.8,19.93,34.45.52,1,1,1.91,1.56,2.85.19.34.18.51-.24.6-5,1.09-9.87,1-14.06-2.57a9.69,9.69,0,0,1-1.93-2.35c-5.88-9.61-11.69-19.26-17.67-28.82a27.25,27.25,0,0,0-16.89-12.1,29.37,29.37,0,0,0-36.36,23c-3.06,15.44,7.37,31,22.88,34.17a29.44,29.44,0,0,0,35-23.85C156.54,46.31,156.61,45.62,156.71,44.88Z"></path>
        <path class="cls-1" d="M285.38,140.21l7.47,11c.4-.15.4-.53.51-.79q5.86-14.25,11.69-28.52a1.46,1.46,0,0,1,1.65-1.09c2,.08,3.94,0,5.91,0a1,1,0,0,1,1.18.73q6.63,15.48,13.34,30.92c.28.66.27.89-.55.87-2.17-.05-4.34,0-6.51,0a.92.92,0,0,1-1.06-.72c-.69-2-1.47-4-2.19-6a.88.88,0,0,0-1-.7q-6,0-11.93,0a.91.91,0,0,0-1,.69c-.77,2-1.6,4-2.37,6a.89.89,0,0,1-1,.69q-6.9,0-13.81,0a1.22,1.22,0,0,1-1.15-.71q-3.73-5.62-7.45-11.25a1.39,1.39,0,0,0-1.35-.72q-3.5.07-7,0c-.68,0-.88.15-.87.86,0,3.65,0,7.3,0,11,0,.69-.17.89-.87.87-2-.05-4.07-.05-6.11,0-.69,0-.8-.23-.8-.84q0-15.39,0-30.78c0-.66.12-.9.85-.9,7.52,0,15.06.07,22.59,0,6.35-.06,9.89,5.75,9.66,10.79a8.85,8.85,0,0,1-7,8.29A1.63,1.63,0,0,0,285.38,140.21ZM274.1,126.37c-2,0-3.67,0-5.34,0-.61,0-.85.11-.84.8.05,2.5,0,5,0,7.49,0,.64.2.74.78.74,2.73,0,5.45,0,8.18,0a10.32,10.32,0,0,0,2.83-.22c1.82-.5,3.56-1.16,4-3.27.55-2.48-.83-4.5-3.48-5.19C278.13,126.15,275.94,126.45,274.1,126.37Zm35.55,2.56c-1.44,3.88-2.82,7.57-4.22,11.32,2.7,0,5.27,0,7.83,0,.76,0,.69-.25.48-.79C312.39,136,311.07,132.59,309.65,128.93Z"></path>
        <path class="cls-1" d="M178.4,137.25c4.11,1.8,5.86,4.95,5.08,9.12a8.84,8.84,0,0,1-8.29,6.92c-6.93.07-13.87,0-20.8,0-.58,0-.71-.19-.7-.73q0-15.53,0-31.06c0-.56.14-.73.71-.73,6.47,0,12.95,0,19.43,0a9.76,9.76,0,0,1,3.66.62c3.16,1.27,5.27,3.43,5.61,7,.37,3.74-.91,6.69-4.35,8.52l-.24.15S178.47,137.14,178.4,137.25Zm-11.69,3h0c-1.77,0-3.55,0-5.32,0-.47,0-.72.07-.71.64,0,2.07,0,4.14,0,6.21,0,.51.16.67.68.67,3.45,0,6.9,0,10.35,0a3.4,3.4,0,0,0,3.51-3.56,3.71,3.71,0,0,0-3.58-3.91C170,140.23,168.36,140.26,166.71,140.26Zm-.1-5.53v.05h4.63a3.49,3.49,0,0,0,3.56-3.65,3.8,3.8,0,0,0-3.55-4.06c-3.22,0-6.44,0-9.66,0-.62,0-.77.19-.76.78,0,2,0,4.08,0,6.11,0,.69.23.82.85.81C163.32,134.7,165,134.73,166.61,134.73Z"></path>
        <path class="cls-1" d="M243.35,153.31c-3,0-6-.08-9.07,0-5.54.18-9.41-2.41-12-7.06-3.74-6.65-3.21-16.76,3.59-22.38a13.47,13.47,0,0,1,8.82-3.06c6.38,0,12.76,0,19.14,0,.66,0,.83.2.81.84,0,1.48,0,3,0,4.44,0,.65-.18.81-.82.81-5.43,0-10.85,0-16.28,0-4.69,0-7.3,2-8.46,6.58a14.23,14.23,0,0,0,1,10.15,6.87,6.87,0,0,0,6.78,4.15c3.12-.07,6.25,0,9.37,0,.63,0,.84-.14.83-.81q-.06-3.3,0-6.6c0-.67-.2-.82-.83-.81-3.16,0-6.31,0-9.47,0-.69,0-.9-.18-.87-.87.06-1.25.05-2.5,0-3.75,0-.57.09-.79.74-.79,5.88,0,11.77,0,17.65,0,.5,0,.68.1.68.64,0,5.95,0,11.9,0,17.85,0,.64-.28.66-.77.66Z"></path>
        <path class="cls-1" d="M206.3,139.94c-3.26,0-6.51,0-9.77,0-.83,0-.95.23-.87,1a7.4,7.4,0,0,0,7.43,6.7c4.3,0,8.61,0,12.92,0,.81,0,1,.24,1,1-.06,1.32,0,2.63,0,3.95,0,.58-.12.79-.75.79-5.23,0-10.46,0-15.69,0-7.1-.11-12.39-4.86-13.64-12.08A19.61,19.61,0,0,1,188.75,128,13.23,13.23,0,0,1,200,121c5.35-.42,10.71-.08,16.07-.18.61,0,.7.25.69.77,0,1.44,0,2.89,0,4.34,0,.7-.25.78-.85.78q-6.46,0-12.92,0a7.37,7.37,0,0,0-7.15,5.27l0,.09c-.49,1.94-.41,2.05,1.54,2.05,6.22,0,12.43,0,18.65,0,.78,0,1,.2,1,1-.06,1.31-.06,2.63,0,4,0,.71-.14.95-.91.94C212.81,139.91,209.55,139.94,206.3,139.94Z"></path>
        <path class="cls-1" d="M101.78,153.31c-2.53,0-5,0-7.53,0-.53,0-.63-.3-.76-.69-.71-2-1.46-3.93-2.16-5.9a1,1,0,0,0-1.11-.82c-4,0-7.89,0-11.84,0a1,1,0,0,0-1,.74c-.76,2-1.58,4-2.37,6-.13.33-.21.64-.72.64-2.49,0-5,0-7.59,0,1-2.56,2-5,3.06-7.52,3.28-8,6.58-16,9.84-24a1.32,1.32,0,0,1,1.48-1c2.07.08,4.14,0,6.21,0a.82.82,0,0,1,.92.52Q95,137.18,101.78,153A1.55,1.55,0,0,1,101.78,153.31ZM88.47,140.23c-1.45-3.74-2.86-7.42-4.36-11.3l-4.21,11.3Z"></path>
        <path class="cls-1" d="M98.68,120.83c2.91,0,5.73,0,8.56,0a1.22,1.22,0,0,1,1.17.68c2.62,4,5.27,8.06,7.91,12.09.39-.12.48-.47.66-.73q3.76-5.64,7.51-11.3a1.39,1.39,0,0,1,1.35-.74c2.87,0,5.75,0,8.65,0,0,.48-.36.7-.56,1q-6.51,8.55-13,17.06a2.54,2.54,0,0,0-.56,1.71c0,4,0,8,0,11.93,0,.66-.13.9-.85.88-2,0-4.07,0-6.11,0-.61,0-.77-.15-.76-.76,0-4,0-8,0-11.93a2.92,2.92,0,0,0-.64-1.88q-6.42-8.48-12.79-17A1.71,1.71,0,0,1,98.68,120.83Z"></path>
        <path class="cls-1" d="M65.64,133.3c-.07,2.78.13,6.2-.09,9.61a10.21,10.21,0,0,1-8,9.61,24.89,24.89,0,0,1-5.94.78c-4,0-8,0-11.94,0-.61,0-.86-.12-.83-.8.05-1.28,0-2.56,0-3.84,0-.56.15-.72.71-.71,3,0,6,0,9,0,1.11,0,2.23-.07,3.34-.18a6.28,6.28,0,0,0,5.38-6.5q0-9.72,0-19.43c0-.88.21-1.09,1.08-1.07q3.19.11,6.41,0c.82,0,1,.27,1,1C65.62,125.43,65.64,129,65.64,133.3Z"></path>
        <path class="cls-1" d="M357.79,132.62c0,3.39.09,6.77,0,10.15a10.15,10.15,0,0,1-8.08,9.77,26.23,26.23,0,0,1-6,.76c-3.91,0-7.82,0-11.73,0-.69,0-.92-.15-.88-.86.06-1.25,0-2.5,0-3.75,0-.63.18-.75.77-.75,3,0,6.05,0,9.07,0a19,19,0,0,0,3.54-.24,6.28,6.28,0,0,0,5-6.42c0-6.47,0-13,0-19.42,0-.94.28-1.13,1.14-1.1,2.07.06,4.15.06,6.22,0,.84,0,1.12.17,1.1,1.07-.06,3.58,0,7.17,0,10.75Z"></path>
        <path class="cls-1" d="M316.68,169.1l-6.12.05a4.13,4.13,0,0,1-3.24-4.5c.12-2.3,1.62-4.08,3.66-4.18,1.7-.08,3.41,0,5.12,0,.74,0,.54.48.56.87s.09.85-.6.83c-1.35,0-2.7,0-4,0-1.53,0-2.31.94-2.31,2.67s.77,2.82,2.34,2.85a13.87,13.87,0,0,1,1.58,0c.82.11.91-.27.95-1,.07-1-.22-1.31-1.17-1.15-.32.05-.66,0-1,0-.58.06-.87-.07-.87-.78s.31-.78.88-.77c1.19,0,2.37,0,3.55,0,.52,0,.77.08.75.68C316.68,166.15,316.69,167.63,316.68,169.1Z"></path>
        <path class="cls-1" d="M372,120.16c.66-1.8,1.33-3.52,1.89-5.28.23-.74.71-.64,1.21-.62s.37.52.39.82q.22,3,.39,6.1c0,.32.18.73-.45.74s-.52-.34-.54-.7c-.1-1.7-.21-3.41-.47-5.15l-1.23,3.38-.64,1.75c-.1.31-.16.63-.61.63s-.5-.3-.61-.63c-.44-1.33-.9-2.66-1.35-4a1.42,1.42,0,0,0-.52-.77l-.27,4.11a8.88,8.88,0,0,0,0,.89c0,.42-.25.46-.59.47s-.43-.19-.4-.5c.14-2.26.29-4.52.42-6.78,0-.4.28-.38.55-.37s.83-.1,1,.49c.5,1.58,1.06,3.16,1.59,4.74Z"></path>
        <path class="cls-1" d="M364.69,114.26h2.36c.25,0,.52,0,.52.38s-.19.49-.54.5c-.58,0-1.42-.27-1.67.13s-.13,1.26-.14,1.91c0,1.34,0,2.69,0,4,0,.37.06.71-.52.71s-.52-.35-.52-.72c0-1.73,0-3.47,0-5.2,0-.7-.2-1-.89-.87-.32,0-.65,0-1,0s-.46-.09-.46-.45.14-.43.46-.43C363.11,114.27,363.9,114.26,364.69,114.26Z"></path>
      </g>
    </g>
  </g>
</svg>
